<svg width="375" height="386" viewBox="0 0 375 386" fill="none" xmlns="http://www.w3.org/2000/svg">
<path fill-rule="evenodd" clip-rule="evenodd" d="M383.812 138.043C392.865 128.44 398.334 115.958 398.334 102.313C398.334 71.988 371.319 47.405 337.992 47.405C332.745 47.405 327.653 48.0144 322.801 49.1595C313.954 28.8354 292.161 14.4612 266.676 14.4612C253.732 14.4612 241.738 18.17 231.911 24.4837C221.045 14.8817 206.219 8.96973 189.876 8.96973C170.601 8.96973 153.435 17.1934 142.387 29.9954C132.554 23.6685 120.549 19.9509 107.589 19.9509C87.377 19.9509 69.4859 28.9931 58.5351 42.8743C54.8781 42.2446 51.1047 41.9151 47.2465 41.9151C13.9198 41.9151 -13.0969 66.4983 -13.0969 96.8229C-13.0969 108.149 -9.32833 118.673 -2.86993 127.416C-23.2842 157.72 -35.04 193.294 -35.04 231.346C-35.04 294.207 -24.8999 359.324 25.3024 396.069C63.4947 424.023 134.118 431.759 187.133 431.759C247.892 431.759 328.053 426.23 368.163 390.578C409.055 354.231 409.306 287.223 409.306 231.346C409.306 197.656 400.092 165.91 383.812 138.043Z" fill="#FEF6E2"/>
<path d="M383.812 138.043L377.826 132.391C375.32 135.05 374.864 139.045 376.709 142.2L383.812 138.043ZM322.801 49.1593L315.257 52.4489C316.846 56.0995 320.816 58.0895 324.689 57.1758L322.801 49.1593ZM231.911 24.4835L226.465 30.6578C229.223 33.0942 233.261 33.4032 236.356 31.4147L231.911 24.4835ZM142.388 29.9952L137.938 36.9234C141.385 39.141 145.936 38.4826 148.616 35.3789L142.388 29.9952ZM58.5352 42.8741L57.1401 50.991C60.1115 51.5027 63.1247 50.3467 64.9931 47.9782L58.5352 42.8741ZM-2.86982 127.416L3.9527 132.02C5.90059 129.129 5.818 125.323 3.74659 122.519L-2.86982 127.416ZM389.797 143.696C400.165 132.697 406.563 118.235 406.563 102.313H390.106C390.106 113.679 385.564 124.182 377.826 132.391L389.797 143.696ZM406.563 102.313C406.563 66.718 375.108 39.1686 337.992 39.1686V55.641C367.53 55.641 390.106 77.2577 390.106 102.313H406.563ZM337.992 39.1686C332.107 39.1686 326.382 39.8521 320.913 41.143L324.689 57.1758C328.926 56.1761 333.383 55.641 337.992 55.641V39.1686ZM330.345 45.8697C320.096 22.3239 295.19 6.22485 266.676 6.22485V22.6972C289.13 22.6972 307.813 35.3466 315.257 52.4489L330.345 45.8697ZM266.676 6.22485C252.154 6.22485 238.62 10.3871 227.466 17.5522L236.356 31.4147C244.858 25.9525 255.307 22.6972 266.676 22.6972V6.22485ZM237.358 18.309C224.973 7.36641 208.207 0.733398 189.876 0.733398V17.2056C204.232 17.2056 217.116 22.3966 226.465 30.6578L237.358 18.309ZM189.876 0.733398C168.266 0.733398 148.808 9.95574 136.161 24.6115L148.616 35.3789C158.062 24.4309 172.935 17.2056 189.876 17.2056V0.733398ZM146.837 23.0669C135.677 15.8865 122.128 11.7147 107.589 11.7147V28.187C118.97 28.187 129.431 31.4499 137.938 36.9234L146.837 23.0669ZM107.589 11.7147C84.9337 11.7147 64.6342 21.8529 52.0771 37.77L64.9931 47.9782C74.338 36.1331 89.8205 28.187 107.589 28.187V11.7147ZM59.9303 34.7573C55.8135 34.0484 51.5732 33.6789 47.2466 33.6789V50.1512C50.6362 50.1512 53.9431 50.4406 57.1401 50.991L59.9303 34.7573ZM47.2466 33.6789C10.1309 33.6789 -21.3253 61.2282 -21.3253 96.8227H-4.86804C-4.86804 71.7678 17.7089 50.1512 47.2466 50.1512V33.6789ZM-21.3253 96.8227C-21.3253 110.025 -16.9219 122.247 -9.48624 132.312L3.74659 122.519C-1.73443 115.1 -4.86804 106.272 -4.86804 96.8227H-21.3253ZM-26.8113 231.346C-26.8113 195.033 -15.6014 161.047 3.9527 132.02L-9.69235 122.811C-30.9666 154.392 -43.2686 191.556 -43.2686 231.346H-26.8113ZM30.1597 389.42C-16.5132 355.259 -26.8113 294.044 -26.8113 231.346H-43.2686C-43.2686 294.371 -33.2863 363.389 20.4454 402.717L30.1597 389.42ZM187.133 423.523C160.975 423.523 130.593 421.61 102.169 416.3C73.5731 410.958 47.7904 402.325 30.1597 389.42L20.4454 402.717C41.0067 417.766 69.6315 426.978 99.1492 432.493C128.838 438.039 160.276 439.994 187.133 439.994V423.523ZM362.699 384.419C344.35 400.729 316.096 410.68 283.945 416.43C251.999 422.143 217.329 423.523 187.133 423.523V439.994C217.697 439.994 253.487 438.61 286.839 432.645C319.984 426.718 351.865 416.078 373.626 396.736L362.699 384.419ZM401.078 231.346C401.078 259.414 400.993 289.381 395.974 316.801C390.963 344.189 381.209 367.967 362.699 384.419L373.626 396.736C396.009 376.841 406.825 348.942 412.163 319.768C417.495 290.63 417.535 259.154 417.535 231.346H401.078ZM376.709 142.2C392.288 168.87 401.078 199.19 401.078 231.346H417.535C417.535 196.124 407.894 162.95 390.916 133.886L376.709 142.2Z" fill="black"/>
<path d="M196.048 128.26C239.93 128.26 275.503 120.842 275.503 111.692C275.503 102.542 239.93 95.124 196.048 95.124C152.167 95.124 116.594 102.542 116.594 111.692C116.594 120.842 152.167 128.26 196.048 128.26Z" fill="#AF6D3D"/>
<path d="M151.477 267.035C157.537 267.035 162.449 262.119 162.449 256.054C162.449 249.989 157.537 245.072 151.477 245.072C145.418 245.072 140.506 249.989 140.506 256.054C140.506 262.119 145.418 267.035 151.477 267.035Z" fill="black"/>
<path d="M233.763 267.035C239.822 267.035 244.734 262.119 244.734 256.054C244.734 249.989 239.822 245.072 233.763 245.072C227.703 245.072 222.791 249.989 222.791 256.054C222.791 262.119 227.703 267.035 233.763 267.035Z" fill="black"/>
<path d="M151.746 183.713C142.995 181.137 124.445 179.825 120.247 195.179" stroke="black" stroke-width="7.34804" stroke-linecap="round" stroke-linejoin="round"/>
<path d="M229.822 184.323C238.573 181.747 257.123 180.433 261.321 195.789" stroke="black" stroke-width="7.34804" stroke-linecap="round" stroke-linejoin="round"/>
<path d="M63.7061 131.164C65.3152 117.747 78.1884 95.8957 116.809 115.83C120.026 118.386 126.463 125.032 126.463 131.166C136.922 121.582 162.67 108.931 181.978 134.999C193.243 124.776 220.598 110.464 239.908 134.999C239.316 134.261 297.837 90.9131 305.079 140.749" stroke="black" stroke-width="14" stroke-linecap="round" stroke-linejoin="round"/>
<path d="M175.552 298.983C180.888 302.368 194.929 307.105 208.41 298.983" stroke="black" stroke-width="6.64981" stroke-linecap="round"/>
<path d="M193.474 272.075C196.774 272.075 199.448 269.397 199.448 266.095C199.448 262.792 196.774 260.115 193.474 260.115C190.175 260.115 187.5 262.792 187.5 266.095C187.5 269.397 190.175 272.075 193.474 272.075Z" fill="#2B2B2B"/>
<path d="M261.431 290.013C275.866 290.013 287.568 285.997 287.568 281.044C287.568 276.09 275.866 272.074 261.431 272.074C246.996 272.074 235.294 276.09 235.294 281.044C235.294 285.997 246.996 290.013 261.431 290.013Z" fill="#FFC5C5"/>
<path d="M121.037 290.013C135.473 290.013 147.175 285.997 147.175 281.044C147.175 276.09 135.473 272.074 121.037 272.074C106.602 272.074 94.9004 276.09 94.9004 281.044C94.9004 285.997 106.602 290.013 121.037 290.013Z" fill="#FFC5C5"/>
</svg>
