<svg width="66" height="16" viewBox="0 0 66 16" fill="none" xmlns="http://www.w3.org/2000/svg">
<path d="M0.32717 7.42184C0.57884 7.40499 5.05855 7.45555 5.327 7.4387C5.46123 7.4387 5.89745 7.38814 6.66924 7.27017C6.55179 6.15787 6.76991 5.53431 7.3068 5.41634C7.82692 5.29837 8.12892 5.24781 8.19603 5.24781C8.64904 5.19725 9.00137 5.1804 9.15238 5.43319C9.25304 5.61858 9.32016 5.97249 9.32016 6.41067C9.32016 6.56234 9.33693 7.35443 9.37049 7.35443C9.70605 7.35443 13.0281 7.4724 13.3469 7.4724L14.773 7.33758C14.9911 7.42184 15.3099 7.7252 15.2428 8.02855C15.2428 8.09596 15.1589 8.55099 15.0247 9.35993C14.8737 9.37679 14.7898 9.37679 14.773 9.37679C14.7227 9.37679 12.7596 9.35993 8.88393 9.30937C8.76648 9.30937 5.64578 9.39364 5.54512 9.39364C5.25989 9.41049 1.70296 9.34308 1.46807 9.32623C1.38418 9.32623 0.562062 9.39364 0.49495 9.39364C0.0922788 9.39364 0.0419449 9.27567 0.025167 8.88805C0.025167 8.75323 0.025167 8.66896 0.025167 8.60155C-0.00838899 8.39932 -0.00838899 8.09596 0.025167 7.7252C0.025167 7.52296 0.125835 7.42184 0.32717 7.42184ZM2.18952 2.83784C2.18952 2.43337 2.0553 1.08513 2.0553 1.08513C2.39086 1.03457 2.79353 0.916601 3.14587 0.866042C5.10889 0.798631 6.6189 0.764924 7.69269 0.764924C8.91749 0.764924 10.2262 0.815484 11.602 0.882895H11.904C12.3234 0.882895 12.357 0.916601 12.6925 0.984012C13.0952 1.06828 13.1791 1.25366 13.2798 1.59072C13.3301 1.7761 13.3636 1.91093 13.3636 2.01204L13.3972 2.38281C13.4475 2.41651 13.4643 2.8884 13.4475 3.79846C13.4308 4.72537 13.414 5.19725 13.414 5.21411C13.4475 5.90508 13.1623 6.19158 12.508 6.20843C12.357 6.20843 11.8201 6.15787 11.6523 6.15787C11.1825 6.17472 10.9308 5.55116 10.8973 4.27034C10.8973 3.4614 10.7798 3.41084 10.0081 3.36028C9.95772 3.36028 9.90738 3.36028 9.87383 3.34343C8.90071 3.29287 8.31348 3.25916 8.07859 3.25916C6.41757 3.22546 4.82366 3.22546 3.31365 3.24231H2.84386C2.69286 3.24231 2.45797 3.1749 2.34053 3.15804C2.29019 3.14119 2.18952 2.90525 2.18952 2.83784ZM10.3101 11.9384C10.3101 11.871 10.2933 11.7868 10.2933 11.7025V11.6014C10.3101 11.5845 10.2262 11.5677 10.0584 11.5677C9.45438 11.5508 8.46448 11.6182 7.77658 11.6351C6.58535 11.7025 4.4881 11.7868 3.17942 11.8373C3.12909 11.8373 2.70964 11.871 2.64253 11.871C2.25664 11.871 2.00497 11.6856 1.95463 11.3149C1.93785 11.1801 1.83719 10.7419 1.83719 10.5565C1.83719 10.1689 1.95463 9.76441 2.37408 9.76441C6.90413 9.76441 10.0752 9.79811 11.8704 9.89923C12.4241 9.93293 13.0952 10.0172 13.1959 10.3711C13.263 10.5733 13.2798 10.7924 13.2798 11.0115C13.2798 12.0564 12.9442 12.8316 12.1389 13.1687C11.602 13.4215 10.3604 13.5058 9.2866 13.5226C8.74971 13.5395 8.38059 13.5563 8.1457 13.5563C8.11214 13.5563 4.67266 13.59 4.42099 13.6574L4.43777 14.0619C4.4881 14.0619 8.95104 14.0114 8.9846 14.0114C9.45438 14.0114 9.85705 14.0114 10.1926 13.9945C10.5953 13.9945 11.9543 13.8934 12.3402 13.8934H12.3737C12.6925 13.8934 12.8435 13.9945 12.8435 14.1967V14.281C12.7596 14.7529 12.6757 15.1236 12.5919 15.3596C12.4241 15.8989 12.055 16 11.2664 16H11.0651C9.72283 15.9663 7.54169 15.7641 6.24979 15.8146C4.97466 15.8652 3.1962 15.8483 2.64253 15.1742C2.34053 14.8203 2.22308 14.4327 2.22308 13.6911C2.22308 13.6743 2.23986 13.5563 2.23986 13.3372C2.27341 12.6294 2.62575 12.4946 3.39754 12.4609C5.00822 12.4272 7.1558 12.3598 9.80672 12.2586C10.1423 12.2586 10.3101 12.1407 10.3101 11.9384Z" fill="#15B772"/>
<path d="M30.5131 10.9778C30.5131 11.3149 30.5634 13.2698 30.5634 13.6069C30.5634 14.0619 30.446 14.3653 30.1775 14.5169C29.5064 14.8877 29.0199 15.0731 28.7179 15.0562C27.5937 15.0562 27.3253 14.7192 27.2749 13.6574C27.1911 12.0733 27.1575 10.9947 27.1575 10.4217C27.1575 9.57902 27.2078 6.98367 27.3253 2.6019C27.3756 2.04575 27.5098 1.55701 27.6441 1.08513C27.7112 0.781777 27.8622 0.798631 28.1977 0.714365C28.5669 0.613248 28.5333 0.613248 28.9192 0.545835C29.3386 0.461571 29.7078 0.545836 30.0265 0.697512C30.3453 0.849189 30.5299 1.15254 30.5634 1.60757C30.5634 1.79295 30.5802 2.46707 30.597 3.62993C30.597 4.79278 30.6305 5.51746 30.6641 5.82081C30.7144 6.15787 31.0835 6.54549 31.3352 6.81514C31.5366 7.01737 31.8889 7.37128 32.0902 7.55667C32.3251 7.79261 32.4761 8.06226 32.4426 8.53414C32.409 9.03973 32.3754 9.03973 32.258 9.52846C32.1573 9.93293 31.805 10.1352 31.201 10.152C30.5299 10.152 30.4795 10.2531 30.5131 10.9778ZM21.8221 5.34893C21.8221 5.29837 21.7214 5.19725 21.6879 5.19725C20.849 5.02872 20.3121 4.92761 20.1108 4.92761C19.8926 4.8939 19.2215 5.01187 19.037 5.01187C18.5504 5.01187 17.9296 4.99502 17.1746 4.96131C16.8558 4.8939 16.8055 4.57369 16.8055 4.23663C16.7552 4.00069 16.7384 3.79846 16.7887 3.57937C16.8726 3.15804 16.9733 2.8884 17.1746 2.56819C17.3592 2.21428 17.2585 2.21428 17.7954 2.13001C19.0034 1.92778 19.7416 1.80981 20.0101 1.79295C20.2785 1.7761 21.2684 1.92778 21.5201 1.92778C21.7886 1.94463 22.7281 1.87722 23.0133 1.91093C23.8522 1.92778 24.5569 2.28169 25.0267 2.78728C25.2951 3.09063 25.4126 3.42769 25.4126 3.83216C25.379 4.33775 25.5133 6.98367 25.5133 7.50611C25.5133 8.0454 25.2784 8.34876 25.0938 8.70267C25.0267 8.83749 24.8925 8.93861 24.7079 9.02287C23.7012 9.42735 22.8791 9.56217 22.2416 9.42735C21.755 9.35993 21.755 9.37679 21.302 9.46105C21.0671 9.49476 20.9161 9.52846 20.8154 9.52846C20.8154 9.59588 20.7819 10.3543 20.7651 10.4217C21.8557 10.2868 23.0805 10.3374 24.4227 10.5396C25.4294 10.725 24.5905 12.2923 24.5066 12.8822C24.322 13.4889 23.8019 13.4889 23.0301 13.708C22.1744 13.9439 22.2919 13.9102 21.4362 14.0788C20.5973 14.2304 19.792 14.2136 19.037 13.9945C18.7517 13.8934 17.7115 13.5058 17.4598 13.3878C17.1243 13.2361 16.9565 12.9159 16.9901 12.444C17.0068 11.5677 17.3256 9.54532 17.3592 8.68582C17.3256 7.59037 17.6276 7.05108 18.282 7.05108C18.9027 7.01737 20.1611 7.1859 20.849 7.1522C21.2517 7.13534 21.6376 7.05108 22.0067 6.91625C22.0067 6.8994 22.0067 6.76458 21.9731 6.52864C21.9396 6.24214 21.8221 5.56802 21.8221 5.34893Z" fill="#15B772"/>
<path d="M36.2032 10.6071C39.844 10.4891 44.0385 10.388 47.6793 10.388C47.931 10.3711 48.1323 10.5396 48.2666 10.8767C48.5014 11.3654 48.5518 11.8542 48.4176 12.3429C48.384 12.5114 48.2498 12.6463 48.0149 12.7137C47.78 12.8148 46.9075 12.8991 45.3975 12.9328C43.9043 12.9833 43.1157 13.0002 43.0486 13.0002L42.7634 13.0507C42.7298 13.2698 42.5453 14.399 42.5117 14.5844C42.4614 14.8371 42.3104 14.9888 42.0587 15.0225C41.8238 15.0731 41.2366 15.1068 40.3306 15.1236C40.1125 15.1405 39.9782 15.0057 39.9279 14.7192V14.0114C39.9279 13.8934 39.9615 13.6911 39.9279 13.5732C39.9279 13.5395 39.9111 13.4889 39.9111 13.4552C39.9111 13.2361 39.5252 13.2193 39.3239 13.1856C39.1393 13.1519 38.3172 13.1013 36.8743 13.0676C35.4314 13.017 34.5422 13.0002 34.2402 13.0002C34.0556 13.0002 33.9046 12.8822 33.7872 12.6463C33.5858 12.1575 33.5691 11.5677 33.7368 10.8767C33.7704 10.7587 33.9214 10.6745 34.1898 10.6239C34.257 10.5733 34.3241 10.6071 36.2032 10.6071ZM35.4817 0.764924C35.8509 0.68066 36.3878 0.545835 36.8575 0.545835C37.5958 0.545835 38.6528 0.562688 39.995 0.613248C40.3809 0.613248 41.656 0.731218 42.0251 0.748071C42.411 0.781777 43.9378 0.815484 44.3405 0.832336C44.6425 0.866042 45.1123 0.950307 45.7499 1.11884C46.1358 1.23681 46.2364 1.4559 46.1693 1.94463C46.0686 2.6356 45.9848 3.10749 45.9176 3.34343C45.666 4.08496 44.911 4.55684 44.2566 4.91075C45.5485 5.88822 46.2868 6.42752 46.4713 6.54549C46.6894 6.69717 46.7398 6.79828 46.5888 7.03423C46.4713 7.25331 46.1358 7.92743 45.9847 8.11281C45.7834 8.50043 44.9948 8.75323 44.3573 8.56784C43.7029 8.38246 43.3003 8.07911 42.7802 7.7252L42.2936 7.40499C42.0252 7.23646 41.7231 7.06793 41.3876 6.93311C41.0856 6.83199 40.7165 6.8994 40.2802 7.13534C39.6762 7.4724 38.938 7.91058 38.0823 8.44987C37.73 8.66896 37.0924 8.63526 36.6562 8.48358C36.0019 8.34876 35.3475 7.97799 35.4482 7.23646C35.5153 6.73087 35.9348 6.17472 36.4549 5.98934C37.1931 5.7534 37.4448 5.61858 38.2837 5.31522C39.3407 4.94446 39.4413 4.8939 40.4145 4.45572C40.8675 4.25349 41.1359 4.11866 41.2198 4.08496C41.6225 3.91643 41.7903 3.62993 41.9916 3.22546C40.0789 3.22546 39.0219 3.22546 38.8541 3.2086C38.5018 3.2086 37.7971 3.14119 36.7401 3.02322C36.6059 3.00637 36.1529 2.87154 36.0019 2.87154C35.6663 2.83784 35.4817 2.65246 35.4817 2.3154V0.764924Z" fill="#15B772"/>
<path d="M63.8221 4.91075V6.5792C63.8221 6.76458 63.7885 7.10164 63.755 7.57352C63.7214 7.84317 63.5536 7.99484 63.2852 7.99484C62.6812 8.0117 62.1779 8.0117 61.7416 7.97799C61.2551 7.96114 60.8524 7.59037 60.8356 7.10164C60.8021 5.60172 60.8356 2.95581 60.9195 1.27051C60.9195 0.731218 61.188 0.613248 61.5738 0.411013C61.9765 0.208777 62.3456 -0.0440183 62.9664 0.00654143C63.453 0.0402472 63.7718 0.158217 63.7718 0.596395C63.7718 1.06828 63.8053 1.67498 63.8892 2.38281C63.906 2.51763 64.0067 2.6019 64.1912 2.61875C64.9966 2.68616 65.4496 2.71987 65.5502 2.73672C66.2549 2.90525 65.9865 4.20293 65.718 4.67481C65.6509 4.79278 65.4496 4.87705 65.1476 4.91075H63.8221ZM59.3592 12.0901C59.3592 11.8205 59.292 11.6688 59.0236 11.6688H56.2217V13.4889C56.6244 13.6911 56.9935 13.7754 57.3458 13.7754C58.2015 13.7754 58.7048 13.7586 58.8726 13.708C59.3424 13.59 59.3927 13.2361 59.3592 12.6294C59.3424 12.4609 59.3424 12.3092 59.3592 12.1744V12.0901ZM53.2184 14.0282C53.2184 13.9608 53.2352 13.5732 53.2352 13.5058C53.2688 12.4777 53.3191 11.7868 53.3527 11.4497C53.4869 9.88238 53.9063 9.29252 55.517 9.29252C55.6009 9.29252 55.9029 9.30937 56.0036 9.30937C56.2888 9.30937 56.574 9.30938 56.876 9.29252C56.7586 9.1914 56.6915 9.14085 56.6747 9.12399C56.121 8.75323 55.6848 8.19708 55.1143 7.67464C54.7956 7.40499 54.6278 7.1859 54.4097 6.94996C54.2251 6.78143 54.0573 7.11849 53.9734 7.20275C53.6714 7.52296 52.5809 8.6184 52.2956 8.92176C51.9769 9.25882 51.7252 9.25882 51.44 8.9049C51.2219 8.66896 50.987 8.48358 50.7185 8.3319C50.4333 8.19708 50.2319 8.09596 50.1984 7.7589C50.1816 7.62408 50.2319 7.48925 50.3662 7.32073C50.4836 7.13534 50.8863 6.41067 51.0205 6.22528C51.289 5.85452 51.6077 5.51746 51.9433 5.21411C52.7486 4.47258 52.9164 3.44454 52.7822 1.94463C52.7319 1.43904 52.6815 1.2031 52.6144 1.2031C52.6144 1.06828 52.6312 1.00087 52.648 1.00087C53.101 0.764924 53.4533 0.545835 54.1412 0.51213C54.2922 0.51213 54.4432 0.528983 54.5774 0.562688C54.7956 0.630101 55.5338 0.781777 55.7519 0.832336C56.1042 0.933454 56.2552 1.1694 56.2217 1.54016C56.1546 2.26484 55.9197 3.57937 55.8693 4.27034C55.8693 4.30405 55.819 4.53999 55.7519 4.99502C55.97 5.1804 56.3727 5.45005 56.9767 5.78711C57.5639 6.12417 57.8827 6.30955 57.933 6.34325C58.386 6.64661 58.6545 6.79828 58.9229 7.20275C59.1914 7.62408 58.9733 8.0454 58.7216 8.39931C58.4364 8.80379 58.2015 9.09029 58.0001 9.25882C58.839 9.22511 59.2585 9.12399 59.9632 9.12399C60.8692 9.12399 61.6577 9.41049 62.3289 9.98349C62.6476 10.2531 62.8993 10.961 62.8993 11.5677C62.8993 11.7025 62.8825 11.8205 62.8658 11.9216C62.698 12.8148 62.4799 14.2136 62.2282 14.9214C62.1611 15.0562 62.0436 15.1742 61.8591 15.2416C60.8524 15.6124 59.7954 15.7978 58.6545 15.7978C57.5136 15.7978 56.7754 15.7641 56.4733 15.6966C54.913 15.3596 54.007 15.1405 53.7553 15.0562C53.4198 14.9551 53.2184 14.4832 53.2184 14.0282Z" fill="#15B772"/>
</svg>
