<svg width="161" height="205" viewBox="0 0 161 205" fill="none" xmlns="http://www.w3.org/2000/svg">
<path d="M92.0769 82.1172C92.0769 86.0936 90.5352 89.7109 88.0154 92.4071C85.2518 95.3642 81.3117 97.2134 76.9385 97.2134C72.8545 97.2134 69.1482 95.6007 66.4251 92.9791C63.5735 90.2337 61.8 86.382 61.8 82.1172C61.8 77.8523 63.5735 74.0006 66.4251 71.2552C69.1482 68.6336 72.8545 67.0209 76.9385 67.0209C81.3117 67.0209 85.2518 68.8701 88.0154 71.8272C90.5352 74.5234 92.0769 78.1408 92.0769 82.1172Z" fill="#15B772"/>
<path d="M83.2154 81.9331C83.2154 85.2884 80.4878 88.0084 77.1231 88.0084C73.7584 88.0084 71.0308 85.2884 71.0308 81.9331C71.0308 78.5778 73.7584 75.8577 77.1231 75.8577C80.4878 75.8577 83.2154 78.5778 83.2154 81.9331Z" fill="#15B772"/>
<path d="M118.108 169.565H36.8769H29.6769C26.8461 169.994 21.1107 172.584 20.8153 179.506C20.6922 182.943 22.2922 189.853 29.6769 190H124.754C127.954 189.57 134.28 186.87 133.985 179.506C133.985 176.192 132.138 169.565 124.754 169.565H118.108Z" fill="#15B772"/>
<path d="M117.753 77.667L143.167 65.2122L146.615 63.5225C149.559 62.0796 153 64.2166 153 67.4879V96.2689C153 99.5666 149.508 101.702 146.561 100.207L143.205 98.5053L117.699 85.5708C116.222 84.8218 115.422 83.4557 115.295 82.0368C115.142 80.3288 115.964 78.5442 117.753 77.667Z" fill="#15B772"/>
<path d="M77.1231 149.866L76.9385 97.2134M77.1231 149.866C65.7305 149.866 54.9911 147.077 45.5538 142.147C39.4142 138.939 33.8257 134.825 28.9671 129.983M77.1231 149.866C88.5157 149.866 99.2551 147.077 108.692 142.147C114.832 138.939 120.42 134.825 125.279 129.983M9 81.9331L61.8 82.1172M9 81.9331C9 63.5385 16.3314 46.8515 28.2393 34.6192M9 81.9331C9 100.7 16.6308 117.689 28.9671 129.983M77.1231 14L76.9385 67.0209M77.1231 14C57.9458 14 40.6193 21.9021 28.2393 34.6192M77.1231 14C95.9275 14 112.952 21.5978 125.279 33.8828M92.0769 82.1172C92.0769 86.0936 90.5352 89.7109 88.0154 92.4071M92.0769 82.1172C92.0769 78.1408 90.5352 74.5234 88.0154 71.8272M92.0769 82.1172L115.295 82.0368M76.9385 97.2134C81.3117 97.2134 85.2518 95.3642 88.0154 92.4071M76.9385 97.2134C72.8545 97.2134 69.1482 95.6007 66.4251 92.9791M61.8 82.1172C61.8 77.8523 63.5735 74.0006 66.4251 71.2552M61.8 82.1172C61.8 86.382 63.5735 90.2337 66.4251 92.9791M76.9385 67.0209C72.8545 67.0209 69.1482 68.6336 66.4251 71.2552M76.9385 67.0209C81.3117 67.0209 85.2518 68.8701 88.0154 71.8272M88.0154 92.4071L125.279 129.983M125.279 129.983C133.858 121.434 140.161 110.614 143.205 98.5053M66.4251 71.2552L28.2393 34.6192M88.0154 71.8272L125.279 33.8828M125.279 33.8828C133.822 42.3974 140.109 53.1635 143.167 65.2122M66.4251 92.9791L28.9671 129.983M46.2922 141.213L36.8769 169.565M36.8769 169.565H118.108M36.8769 169.565H29.6769C26.8461 169.994 21.1107 172.584 20.8153 179.506C20.6922 182.943 22.2922 189.853 29.6769 190H124.754C127.954 189.57 134.28 186.87 133.985 179.506C133.985 176.192 132.138 169.565 124.754 169.565H118.108M118.108 169.565L108.877 141.213M115.295 82.0368C115.142 80.3288 115.964 78.5442 117.753 77.667L143.167 65.2122M115.295 82.0368C115.422 83.4557 116.222 84.8218 117.699 85.5708L143.205 98.5053M143.205 98.5053L146.561 100.207C149.508 101.702 153 99.5666 153 96.2689V67.4879C153 64.2166 149.559 62.0796 146.615 63.5225L143.167 65.2122M83.2154 81.9331C83.2154 85.2884 80.4878 88.0084 77.1231 88.0084C73.7584 88.0084 71.0308 85.2884 71.0308 81.9331C71.0308 78.5777 73.7584 75.8577 77.1231 75.8577C80.4878 75.8577 83.2154 78.5777 83.2154 81.9331Z" stroke="#1C1C1E" stroke-width="6"/>
</svg>
