<svg width="192" height="46" viewBox="0 0 192 46" fill="none" xmlns="http://www.w3.org/2000/svg">
<path d="M0.951768 21.3378C1.6839 21.2893 14.7158 21.4347 15.4967 21.3863C15.8872 21.3863 17.1562 21.2409 19.4014 20.9017C19.0598 17.7039 19.6943 15.9111 21.2561 15.572C22.7692 15.2328 23.6478 15.0875 23.843 15.0875C25.1608 14.9421 26.1858 14.8936 26.6251 15.6204C26.9179 16.1534 27.1132 17.1709 27.1132 18.4307C27.1132 18.8667 27.162 21.144 27.2596 21.144C28.2358 21.144 37.8999 21.4832 38.8272 21.4832L42.976 21.0955C43.6105 21.3378 44.5379 22.2099 44.3426 23.0821C44.3426 23.2759 44.0986 24.5841 43.7081 26.9098C43.2688 26.9583 43.0248 26.9583 42.976 26.9583C42.8296 26.9583 37.1189 26.9098 25.8442 26.7645C25.5025 26.7645 16.4241 27.0067 16.1312 27.0067C15.3015 27.0552 4.95407 26.8614 4.27075 26.8129C4.02671 26.8129 1.63509 27.0067 1.43985 27.0067C0.268447 27.0067 0.122022 26.6675 0.073213 25.5531C0.073213 25.1655 0.073213 24.9233 0.073213 24.7295C-0.0244043 24.148 -0.0244043 23.2759 0.073213 22.2099C0.073213 21.6285 0.366064 21.3378 0.951768 21.3378ZM6.36952 8.15878C6.36952 6.99593 5.97905 3.11975 5.97905 3.11975C6.95523 2.97439 8.12663 2.63523 9.15161 2.48987C14.8622 2.29606 19.255 2.19916 22.3787 2.19916C25.9418 2.19916 29.7488 2.34452 33.7512 2.53832H34.6297C35.8499 2.53832 35.9475 2.63523 36.9237 2.82904C38.0951 3.0713 38.3392 3.60427 38.632 4.57332C38.7784 5.10629 38.8761 5.49391 38.8761 5.78462L38.9737 6.85057C39.1201 6.94748 39.1689 8.30414 39.1201 10.9206C39.0713 13.5854 39.0225 14.9421 39.0225 14.9906C39.1201 16.9771 38.2904 17.8008 36.3868 17.8492C35.9475 17.8492 34.3857 17.7039 33.8976 17.7039C32.5309 17.7523 31.7988 15.9596 31.7012 12.2772C31.7012 9.95152 31.3595 9.80616 29.1143 9.66081C28.9679 9.66081 28.8215 9.66081 28.7239 9.61235C25.893 9.467 24.1847 9.37009 23.5013 9.37009C18.6693 9.27319 14.0325 9.27319 9.6397 9.32164H8.27306C7.83378 9.32164 7.15046 9.12783 6.8088 9.07938C6.66238 9.03093 6.36952 8.3526 6.36952 8.15878ZM29.9929 34.323C29.9929 34.1292 29.9441 33.8869 29.9441 33.6447V33.354C29.9929 33.3055 29.7488 33.2571 29.2608 33.2571C27.5037 33.2086 24.6239 33.4024 22.6228 33.4509C19.1574 33.6447 13.0563 33.8869 9.24923 34.0323C9.10281 34.0323 7.88259 34.1292 7.68736 34.1292C6.56476 34.1292 5.83263 33.5962 5.6862 32.5303C5.63739 32.1427 5.34454 30.8829 5.34454 30.3499C5.34454 29.2355 5.6862 28.0727 6.90642 28.0727C20.0847 28.0727 29.3096 28.1696 34.5321 28.4603C36.1428 28.5572 38.0951 28.7994 38.388 29.8169C38.5832 30.3984 38.632 31.0283 38.632 31.6581C38.632 34.6622 37.6558 36.891 35.313 37.86C33.7512 38.5868 30.1393 38.8291 27.0156 38.8775C25.4537 38.926 24.3799 38.9744 23.6966 38.9744C23.599 38.9744 13.5932 39.0713 12.8611 39.2651L12.9099 40.428C13.0563 40.428 26.0394 40.2826 26.137 40.2826C27.5037 40.2826 28.6751 40.2826 29.6512 40.2342C30.8226 40.2342 34.7761 39.9435 35.8987 39.9435H35.9963C36.9237 39.9435 37.363 40.2342 37.363 40.8156V41.0579C37.1189 42.4145 36.8749 43.4805 36.6309 44.1588C36.1428 45.7093 35.069 46 32.775 46H32.1893C28.2846 45.9031 21.9395 45.3217 18.1812 45.467C14.4718 45.6124 9.29804 45.5639 7.68736 43.6258C6.8088 42.6083 6.46714 41.4939 6.46714 39.362C6.46714 39.3136 6.51595 38.9744 6.51595 38.3445C6.61357 36.3095 7.63855 35.9219 9.88374 35.825C14.5694 35.7281 20.8169 35.5343 28.5286 35.2436C29.5048 35.2436 29.9929 34.9044 29.9929 34.323Z" fill="white"/>
<path d="M88.7654 31.5612C88.7654 32.5303 88.9118 38.1507 88.9118 39.1198C88.9118 40.428 88.5701 41.3001 87.7892 41.7362C85.8369 42.8022 84.4214 43.3351 83.5429 43.2867C80.2727 43.2867 79.4917 42.3176 79.3453 39.2651C79.1013 34.7106 79.0037 31.6097 79.0037 29.9623C79.0037 27.5397 79.1501 20.078 79.4917 7.48045C79.6382 5.88153 80.0286 4.47641 80.4191 3.11975C80.6143 2.24761 81.0536 2.29606 82.0298 2.0538C83.1036 1.76309 83.006 1.76309 84.1286 1.56928C85.3488 1.32702 86.4226 1.56928 87.3499 2.00535C88.2773 2.44142 88.8142 3.31356 88.9118 4.62177C88.9118 5.15474 88.9606 7.09284 89.0094 10.436C89.0094 13.7792 89.107 15.8627 89.2047 16.7348C89.3511 17.7039 90.4249 18.8183 91.157 19.5935C91.7427 20.1749 92.7677 21.1924 93.3534 21.7254C94.0367 22.4037 94.476 23.179 94.3784 24.5356C94.2807 25.9892 94.1831 25.9892 93.8415 27.3943C93.5486 28.5572 92.5236 29.1386 90.7665 29.1871C88.8142 29.1871 88.6678 29.4778 88.7654 31.5612ZM63.4825 15.3782C63.4825 15.2328 63.1897 14.9421 63.092 14.9421C60.6516 14.4576 59.0897 14.1669 58.504 14.1669C57.8695 14.07 55.9172 14.4091 55.3803 14.4091C53.9648 14.4091 52.1589 14.3607 49.9625 14.2638C49.0352 14.07 48.8887 13.1494 48.8887 12.1803C48.7423 11.502 48.6935 10.9206 48.8399 10.2907C49.084 9.07938 49.3768 8.30414 49.9625 7.38355C50.4994 6.36605 50.2066 6.36605 51.7684 6.12379C55.2827 5.54236 57.4302 5.2032 58.2112 5.15474C58.9921 5.10629 61.8718 5.54236 62.604 5.54236C63.3849 5.59082 66.1182 5.39701 66.9479 5.49391C69.3884 5.54236 71.4383 6.55986 72.805 8.01343C73.5859 8.88557 73.9276 9.85461 73.9276 11.0175C73.8299 12.471 74.2204 20.078 74.2204 21.5801C74.2204 23.1305 73.5371 24.0027 73.0002 25.0202C72.805 25.4078 72.4145 25.6985 71.8776 25.9408C68.9491 27.1036 66.5575 27.4912 64.7027 27.1036C63.2873 26.9098 63.2873 26.9583 61.9694 27.2005C61.2861 27.2974 60.8469 27.3943 60.554 27.3943C60.554 27.5881 60.4564 29.7685 60.4076 29.9623C63.5801 29.5747 67.1432 29.72 71.0478 30.3015C73.9764 30.8344 71.5359 35.3405 71.2919 37.0363C70.755 38.7806 69.2419 38.7806 66.9967 39.4105C64.5075 40.0888 64.8492 39.9919 62.3599 40.4764C59.9195 40.9125 57.5767 40.8641 55.3803 40.2342C54.5505 39.9435 51.5244 38.8291 50.7923 38.4899C49.8161 38.0538 49.328 37.1332 49.4256 35.7766C49.4744 33.2571 50.4018 27.4428 50.4994 24.9717C50.4018 21.8223 51.2804 20.2719 53.1839 20.2719C54.9898 20.1749 58.6505 20.6595 60.6516 20.5626C61.823 20.5141 62.9456 20.2719 64.0194 19.8842C64.0194 19.8358 64.0194 19.4482 63.9218 18.7698C63.8242 17.9461 63.4825 16.0081 63.4825 15.3782Z" fill="white"/>
<path d="M105.318 30.4953C115.91 30.1561 128.112 29.8654 138.703 29.8654C139.436 29.8169 140.021 30.3015 140.412 31.2705C141.095 32.6756 141.242 34.0807 140.851 35.4859C140.753 35.9704 140.363 36.358 139.68 36.5518C138.996 36.8425 136.458 37.0848 132.066 37.1817C127.722 37.327 125.428 37.3755 125.232 37.3755L124.403 37.5209C124.305 38.1507 123.768 41.397 123.67 41.93C123.524 42.6568 123.085 43.0929 122.353 43.1898C121.669 43.3351 119.961 43.432 117.325 43.4805C116.691 43.5289 116.3 43.1413 116.154 42.3176V40.2826C116.154 39.9435 116.252 39.362 116.154 39.0229C116.154 38.926 116.105 38.7806 116.105 38.6837C116.105 38.0538 114.983 38.0054 114.397 37.9085C113.86 37.8116 111.468 37.6662 107.271 37.5693C103.073 37.424 100.486 37.3755 99.6078 37.3755C99.0709 37.3755 98.6316 37.0363 98.29 36.358C97.7043 34.9529 97.6555 33.2571 98.1435 31.2705C98.2412 30.9313 98.6804 30.6891 99.4614 30.5437C99.6566 30.3984 99.8518 30.4953 105.318 30.4953ZM103.22 2.19916C104.293 1.9569 105.855 1.56928 107.222 1.56928C109.37 1.56928 112.444 1.61773 116.349 1.76309C117.472 1.76309 121.181 2.10225 122.255 2.1507C123.378 2.24761 127.819 2.34452 128.991 2.39297C129.869 2.48987 131.236 2.73213 133.09 3.21665C134.213 3.55582 134.506 4.1857 134.311 5.59082C134.018 7.57736 133.774 8.93402 133.579 9.61235C132.846 11.7443 130.65 13.1009 128.747 14.1184C132.505 16.9286 134.652 18.4791 135.189 18.8183C135.824 19.2544 135.97 19.5451 135.531 20.2234C135.189 20.8533 134.213 22.7914 133.774 23.3243C133.188 24.4387 130.894 25.1655 129.039 24.6326C127.136 24.0996 125.964 23.2274 124.451 22.2099L123.036 21.2893C122.255 20.8048 121.376 20.3203 120.4 19.9327C119.522 19.642 118.448 19.8358 117.179 20.5141C115.422 21.4832 113.274 22.7429 110.785 24.2934C109.76 24.9233 107.905 24.8264 106.636 24.3903C104.733 24.0027 102.829 22.9367 103.122 20.8048C103.317 19.3513 104.537 17.7523 106.051 17.2194C108.198 16.541 108.93 16.1534 111.371 15.2813C114.446 14.2153 114.738 14.07 117.569 12.8102C118.887 12.2288 119.668 11.8412 119.912 11.7443C121.084 11.2597 121.572 10.436 122.157 9.27319C116.593 9.27319 113.518 9.27319 113.03 9.22474C112.005 9.22474 109.955 9.03093 106.88 8.69176C106.49 8.64331 105.172 8.25569 104.733 8.25569C103.757 8.15878 103.22 7.62581 103.22 6.65677V2.19916Z" fill="white"/>
<path d="M185.664 14.1184V18.9152C185.664 19.4482 185.567 20.4172 185.469 21.7739C185.371 22.5491 184.883 22.9852 184.102 22.9852C182.345 23.0336 180.881 23.0336 179.612 22.9367C178.197 22.8883 177.025 21.8223 176.976 20.4172C176.879 16.105 176.976 8.49795 177.22 3.65273C177.22 2.10225 178.001 1.76309 179.124 1.18166C180.295 0.600234 181.369 -0.126553 183.175 0.0188066C184.59 0.115711 185.518 0.454875 185.518 1.71464C185.518 3.0713 185.615 4.81558 185.86 6.85057C185.908 7.23819 186.201 7.48045 186.738 7.52891C189.081 7.72272 190.399 7.81962 190.692 7.86807C192.742 8.3526 191.961 12.0834 191.18 13.4401C190.984 13.7792 190.399 14.0215 189.52 14.1184H185.664ZM172.681 34.7591C172.681 33.9838 172.486 33.5478 171.705 33.5478H163.554V38.7806C164.725 39.362 165.799 39.6043 166.824 39.6043C169.313 39.6043 170.778 39.5558 171.266 39.4105C172.632 39.0713 172.779 38.0538 172.681 36.3096C172.632 35.825 172.632 35.389 172.681 35.0013V34.7591ZM154.817 40.3311C154.817 40.1373 154.866 39.0229 154.866 38.8291C154.964 35.8735 155.11 33.8869 155.208 32.9179C155.598 28.4118 156.818 26.716 161.504 26.716C161.748 26.716 162.627 26.7645 162.919 26.7645C163.749 26.7645 164.579 26.7645 165.458 26.716C165.116 26.4253 164.921 26.2799 164.872 26.2315C163.261 25.1655 161.992 23.5666 160.333 22.0646C159.405 21.2893 158.917 20.6595 158.283 19.9811C157.746 19.4966 157.258 20.4657 157.014 20.7079C156.135 21.6285 152.963 24.7779 152.133 25.6501C151.205 26.6191 150.473 26.6191 149.644 25.6016C149.009 24.9233 148.326 24.3903 147.545 23.9542C146.715 23.5666 146.129 23.2759 146.032 22.3068C145.983 21.9192 146.129 21.5316 146.52 21.0471C146.861 20.5141 148.033 18.4307 148.423 17.8977C149.204 16.8317 150.132 15.8627 151.108 14.9906C153.451 12.8587 153.939 9.90307 153.548 5.59082C153.402 4.13725 153.255 3.45891 153.06 3.45891C153.06 3.0713 153.109 2.87749 153.158 2.87749C154.476 2.19916 155.501 1.56928 157.502 1.47237C157.941 1.47237 158.38 1.52083 158.771 1.61773C159.405 1.81154 161.553 2.24761 162.187 2.39297C163.212 2.68368 163.652 3.36201 163.554 4.42796C163.359 6.51141 162.675 10.2907 162.529 12.2772C162.529 12.3741 162.383 13.0525 162.187 14.3607C162.822 14.8937 163.993 15.6689 165.75 16.6379C167.459 17.607 168.386 18.14 168.532 18.2369C169.85 19.109 170.631 19.5451 171.412 20.7079C172.193 21.9192 171.559 23.1305 170.826 24.148C169.997 25.3109 169.313 26.1346 168.728 26.6191C171.168 26.5222 172.388 26.2315 174.438 26.2315C177.074 26.2315 179.368 27.0552 181.32 28.7025C182.248 29.4778 182.98 31.5128 182.98 33.2571C182.98 33.6447 182.931 33.9838 182.882 34.2746C182.394 36.8425 181.76 40.8641 181.027 42.8991C180.832 43.2867 180.491 43.6258 179.954 43.8197C177.025 44.8856 173.95 45.4186 170.631 45.4186C167.312 45.4186 165.165 45.3217 164.286 45.1279C159.747 44.1588 157.111 43.5289 156.379 43.2867C155.403 42.996 154.817 41.6393 154.817 40.3311Z" fill="white"/>
</svg>
